<?xml version="1.0" encoding="utf-8"?>
<!-- Generator: Adobe Illustrator 21.0.0, SVG Export Plug-In . SVG Version: 6.00 Build 0)  -->
<svg version="1.1" id="Controller" xmlns="http://www.w3.org/2000/svg" xmlns:xlink="http://www.w3.org/1999/xlink" x="0px" y="0px"
	 viewBox="0 0 212.6 212.6" style="enable-background:new 0 0 212.6 212.6;" xml:space="preserve">
<style type="text/css">
	.st0{fill:#FFFFFF;}
</style>
<path class="st0" d="M106.3,67.9c-21.2,0-38.4,17.2-38.4,38.4c0,21.2,17.2,38.5,38.4,38.5c21.2,0,38.3-17.2,38.3-38.5
	C144.6,85.1,127.5,67.9,106.3,67.9z M183.3,128.4l-6.9,16.7l12.4,24.3l1.6,3.2l-17.1,17.1l-28.1-13.3l-16.7,6.9l-8.5,25.9l-1.1,3.4
	H94.7l-10.5-29.3l-16.7-6.9l-24.3,12.3l-3.2,1.6l-17.1-17.1l13.3-28.1l-6.9-16.7L3.4,120L0,118.9V94.7l29.3-10.5l6.9-16.7L23.8,43.3
	l-1.6-3.2L39.3,23l28.1,13.3l16.7-6.9l8.5-25.9L93.7,0h24.2l10.5,29.3l16.6,6.9l24.3-12.3l3.2-1.6l17.1,17.1l-13.3,28.1l6.9,16.7
	l26,8.5l3.4,1.1v24.2L183.3,128.4z"/>
</svg>
