<?xml version="1.0" encoding="utf-8"?>
<!-- Generator: Adobe Illustrator 21.0.0, SVG Export Plug-In . SVG Version: 6.00 Build 0)  -->
<svg version="1.1" id="Controller" xmlns="http://www.w3.org/2000/svg" xmlns:xlink="http://www.w3.org/1999/xlink" x="0px" y="0px"
	 viewBox="0 0 212.6 212.6" style="enable-background:new 0 0 212.6 212.6;" xml:space="preserve">
<style type="text/css">
	.st0{fill:#FFFFFF;}
</style>
<g>
	<g id="Icon-Pencil" transform="translate(179.000000, 382.000000)">
		<path id="Fill-168" class="st0" d="M-179-169.4l18.2-73.3l111.7-111.7L6-299.3l-111.7,111.7L-179-169.4L-179-169.4z M-148-235.8
			l-11.8,47.2l47.2-11.8l99.4-99.4l-35.4-35.4L-148-235.8L-148-235.8z"/>
		<path id="Fill-169" class="st0" d="M-117.5-192c-4.9-19.2-19.7-34-38.9-38.9l3.4-13.8c24.1,5.9,42.8,24.6,48.7,48.7L-117.5-192"/>
		<polyline id="Fill-170" class="st0" points="-119,-219.1 -128.8,-229.4 -30.9,-327.4 -21,-317.5 -119,-219.1 		"/>
		<path id="Fill-171" class="st0" d="M-169.2-179.2l21.7-5.4c-2-7.9-8.4-14.3-16.2-16.2L-169.2-179.2"/>
		<path id="Fill-172" class="st0" d="M11.5-304.7l-55.1-55.1l22.1-22.1l3.4,0.5c26.6,3.4,47.7,24.6,51.2,51.2l0.5,3.4L11.5-304.7
			L11.5-304.7z M-23.5-359.9l35.4,35.4l6.9-6.9c-3.9-17.7-17.7-31.5-35.4-35.4L-23.5-359.9L-23.5-359.9z"/>
	</g>
</g>
</svg>
