<?xml version="1.0" encoding="utf-8"?>
<!-- Generator: Adobe Illustrator 21.0.0, SVG Export Plug-In . SVG Version: 6.00 Build 0)  -->
<svg version="1.1" id="Controller" xmlns="http://www.w3.org/2000/svg" xmlns:xlink="http://www.w3.org/1999/xlink" x="0px" y="0px"
	 viewBox="0 0 212.6 212.6" style="enable-background:new 0 0 212.6 212.6;" xml:space="preserve">
<style type="text/css">
	.st0{fill:#FFFFFF;}
</style>
<path class="st0" d="M212.1,143.5l-14.4-73.8c-3.7-19.7-21-34.5-41.8-34.5c-12.6,0-23.9,5.5-31.7,14.1H88.3
	c-7.7-8.6-19-14.1-31.6-14.1c-20.7,0-38,14.9-41.8,34.5L0.5,143.5C0.2,145.2,0,147,0,148.8c0,15.7,12.7,28.3,28.3,28.3
	c11.1,0,20.7-6.4,25.4-15.7l18.7-33.3c2.4-4.6,7.1-7.7,12.6-7.7h42.5c5.4,0,10.1,3,12.5,7.5l18.9,33.7c4.7,9.3,14.3,15.7,25.4,15.7
	c15.7,0,28.3-12.7,28.3-28.3C212.6,147,212.5,145.2,212.1,143.5z M56.7,106.3C41,106.3,28.4,93.6,28.4,78
	c0-15.7,12.7-28.3,28.3-28.3S85,62.4,85,78S72.3,106.3,56.7,106.3z M135.9,87.9c-5.5,0-9.9-4.4-9.9-9.9s4.4-9.9,9.9-9.9
	s9.9,4.4,9.9,9.9C145.8,83.4,141.3,87.9,135.9,87.9z M155.9,107.9c-5.5,0-9.9-4.4-9.9-9.9s4.4-9.9,9.9-9.9s9.9,4.4,9.9,9.9
	S161.4,107.9,155.9,107.9z M155.9,67.8c-5.5,0-9.9-4.4-9.9-9.9s4.4-9.9,9.9-9.9s9.9,4.4,9.9,9.9S161.4,67.8,155.9,67.8z M175.9,87.9
	c-5.5,0-9.9-4.4-9.9-9.9s4.4-9.9,9.9-9.9s9.9,4.4,9.9,9.9C185.9,83.4,181.4,87.9,175.9,87.9z"/>
</svg>
