<?xml version="1.0" encoding="utf-8"?>
<!-- Generator: Adobe Illustrator 21.0.0, SVG Export Plug-In . SVG Version: 6.00 Build 0)  -->
<svg version="1.1" id="Ebene_1" xmlns="http://www.w3.org/2000/svg" xmlns:xlink="http://www.w3.org/1999/xlink" x="0px" y="0px"
	 viewBox="0 0 973.1 973.1" style="enable-background:new 0 0 973.1 973.1;" xml:space="preserve">
<style type="text/css">
	.st0{fill:#FFFFFF;}
</style>
<path class="st0" d="M960,833L710.9,583.9C746.4,525.8,768,458.2,768,385C768,173,596,1,384,1C172,1,0,173,0,385
	c0,212,172,384,384,384c73.2,0,140.8-21.6,198.9-57L832,961c17.5,17.5,46.5,17.4,64,0l64-64C977.5,879.5,977.5,850.5,960,833z
	 M384,641c-141.4,0-256-114.6-256-256s114.6-256,256-256s256,114.6,256,256S525.4,641,384,641z"/>
</svg>
